# xmcd
#
# Track frame offsets: 
#        150
#        20960
#        45761
#        70928
#        89521
#        111689
#        146941
#        175209
#        197455
#        215156
#        225831
#        243238
#
# Disc length: 3820 seconds
#
# Revision: 2
# Processed by: cddbd v1.5.2PL0 Copyright (c) Steve Scherf et al.
# Submitted via: ExactAudioCopy v1.0b4
#
DISCID=ad0eea0c
DTITLE=Various Artist - Jazz Women (Jazz and Tzaz 75)
DYEAR=1999
DGENRE=Jazz
TTITLE0=Wilson Cassandra - Hellhound on my tail
TTITLE1=Wilson Cassandra - Strange fruit
TTITLE2=Reeves Dianne - Never said (Chan's song)
TTITLE3=Reeves Dianne - How high the moon.
TTITLE4=Jannah Denise - Bye bye Blachbird
TTITLE5=Humphrey Boby - Harlem river drive
TTITLE6=Rosnes Renee - Upa neguinho
TTITLE7=Norby Caecilie - Sumertime
TTITLE8=Norby Caecilie - Just one of those things
TTITLE9=Holy Cole trio - Honeysuckle
TTITLE10=Tornqvist Rebecka - Fly me to the moon (P.T. Johansson)
TTITLE11=Booker Maria - Dindi (W. Shorter)
EXTD=
EXTT0=
EXTT1=
EXTT2=
EXTT3=
EXTT4=
EXTT5=
EXTT6=
EXTT7=
EXTT8=
EXTT9=
EXTT10=
EXTT11=
PLAYORDER=
